<svg version="1" xmlns="http://www.w3.org/2000/svg" width="682.667" height="682.667" viewBox="0 0 512.000000 512.000000"><path d="M207.7 36.1c-.9.5-2.3.7-3 .3-.7-.5-.5 0 .3 1.1 1.4 1.7 1.4 1.8-.7.6-1.3-.6-2.3-.9-2.3-.5 0 .3-.8 0-1.7-.7-1.6-1.3-1.7-1.2-.4.3.9 1.2 1 1.8.2 1.8-.7 0-1 1-.7 2.4.3 1.8.1 2.3-.9 2-.8-.3-1.2.1-1.2 1.3.1 1.1-.4 1.8-1.4 1.7-1.1-.1-1.5.5-1.2 1.7.3 1 .9 1.6 1.4 1.3.5-.3.9 0 .9.5 0 1.5-2.7 1.4-3.3-.2-.3-.6-.4-.2-.4 1.1.1 1.6.6 2.1 1.7 1.7 1.3-.4 1.3-.4 0 .8-2.1 1.7-4.2 5.7-3.1 5.7.5 0 1.1-.5 1.3-1.2.3-.7.7-.5 1.1.6.4.9.3 1.5-.2 1.1-.5-.3-1.7.2-2.6 1.1-1.3 1.3-1.3 1.9-.3 3.2 1 1.2 1 1.4.1.8-.8-.4-1.3-.2-1.3.4 0 .6-.5.8-1.2.4s-.8-.3-.4.5c.4.6 1.1.9 1.5.7.4-.3.7.5.6 1.7-.1 1.2-.9 2.3-1.8 2.5-2 .4-2.2 1.8-.5 2.8.6.4.8.3.5-.3-.3-.5 0-1 .7-1 1.1 0 1.2.4.3 1.9-.7 1-1.6 1.8-2.2 1.8-.5 0-.3.4.5 1 .8.5 1.1 1.2.7 1.6-.3.4-1.5.1-2.4-.7-1-.7-1.5-.9-1.1-.5.4.5.2 1.6-.5 2.4-.7 1-.8 1.3-.1.9.7-.4 1.7 0 2.3.7.9 1.1.9 1.6 0 2.2-.8.4-.9.3-.5-.4s.2-1.2-.3-1.2c-.6 0-1.1.9-1.1 2.1 0 1.3-.4 1.8-1.2 1.3-.7-.4-.8-.3-.4.5.4.6 1.1.9 1.6.6.5-.3 1.2 0 1.6.6.4.7.3.9-.4.5-.6-.3-1.3-.2-1.7.3-.3.5.3 1.5 1.2 2.1 1.3.9 1.4 1 .2.7-.9-.3-1.6.1-1.6.9 0 .7.5 1 1.1.7.6-.4.3.3-.6 1.4-1 1.1-1.8 2.2-1.8 2.6 0 .3.8.8 1.8 1 1.2.3 1.3.5.2.6-.8 0-2.1 1-2.8 2.2-.8 1.2-.9 1.8-.3 1.5.6-.4.8.4.6 2.1-.2 1.6-.4 3.4-.4 4.2-.1 1.1-.4 1.1-1.8 0-1.6-1.3-1.7-1.2-.5.3 1 1.3 1 1.7 0 2.2-.7.3-.4.4.8.1 1.4-.4 2.1 0 2.1 1 0 .8-.7 1.4-1.5 1.3-1.9-.4-2.4 2.9-.6 3.6.8.3 1.4 1.1 1.4 1.8 0 .9-.3.9-1.1-.2-.8-1.2-1-.9-.6 1.2.3 1.9 0 2.5-1 2.1-.7-.3-1-1-.6-1.7.3-.6.2-.7-.3-.3-.5.5-.9 1.4-.9 2 0 1.9-2.5 1.9-2.6 0 0-1.7-.1-1.7-.8.1-.7 1.8-.8 1.8-1.4.2-.4-1-.4-2.3 0-2.8.3-.6.1-.8-.5-.4-.6.3-1.4.2-1.7-.4-.5-.8-1.1-.7-2.1.1-1 .8-1.4.8-1.4 0 0-.6-.5-1.1-1.1-1.1-.7 0-1.8-.8-2.5-1.8-1.3-1.6-1.4-1.6-.9.3.5 1.6.3 1.6-.6-.3-.7-1.2-1.9-2.2-2.7-2.2-.8 0-2.1-.8-2.9-1.8-.7-.9-1.2-1.2-1.1-.5.2.6-.1 1-.7 1-.5-.1-.9-.7-.7-1.4.1-.6-.7-1.7-1.8-2.3-1.1-.6-1.7-1.6-1.4-2.2.5-.7.2-.8-.6-.3-1 .6-.8 1.2.8 2.6 1.8 1.4 1.9 1.8.7 2.3-.8.3-1.4 0-1.2-.7.1-.7-.4-1.1-1-1-.7.2-1.2 0-1.2-.5.3-2-.3-3.2-1.7-3.2-.9 0-1.2-.5-.8-1.3.6-.9.4-.9-.8.1-1 .8-1.7.9-2 .3-.1-.6-1.5-1.2-2.9-1.3-1.4-.1-2.6-.8-2.6-1.5 0-1 .4-1 1.1-.3.5.5 1.5 1 2 1 2.4 0-3.5-3-6.3-3.2-2-.1-3.3-.9-3.7-2-.3-1-1.2-1.8-2-1.8-1.2 0-1.8-1.1-1.6-3.1.1-.3-.6-.6-1.4-.6-1 0-1.1.4-.4 1.1 1.6 1.6 1.2 2.9-.5 1.4-4-3.6-4.3-3.8-4.8-2.5-.4.9-.6.9-.6-.1-.1-.8-.6-1-1.3-.6-1 .6-1 .4 0-.7.6-.7 1.2-1.8 1.2-2.3 0-.6-.5-.4-1 .4-.8 1.2-1 1.2-1 .1 0-.8-.7-1.1-2-.8-1 .3-1.9.2-1.8-.2.3-2.5-.3-3.1-2.2-2.1-1.7.9-2.2.7-3-1.5-.5-1.4-1.2-2.5-1.5-2.5-.4 0-.4.4-.1.9.7 1.1-1.3.9-3.2-.2-.7-.5-1-1.2-.7-1.7.3-.4-.3-1.1-1.3-1.5-2.2-.8-2.7-.7-2.7.4 0 .5-.4 1.3-.8 1.8-.5.4-.8.3-.7-.2.1-.6.2-1.8.1-2.8-.1-1.5-.4-1.6-2.3-.6-2.1 1.1-2.2 1.1-.9-.4.8-1 .9-1.7.3-1.7-.6 0-1.8-.7-2.6-1.6-1.4-1.4-4.3-2.4-7.3-2.6-.7-.1-1.3-.5-1.3-1s-.5-.6-1.2-.2c-.7.5-.8.3-.4-.5.5-.7 1.4-1 2.2-.7.8.3 1.4 0 1.4-.5 0-.6-.9-.9-1.9-.6-2.2.5-3.3-.1-5-2.8-1.1-1.9-1.1-1.8-.6.5.6 2.1.3 2-1.5-.8-1.6-2.7-2.4-3.1-3.5-2.2-1 .8-1.5.8-2.1-.1-.5-.8-.3-.9.6-.4.9.6 1.1.4.5-.5-.6-1-1.1-.9-2.1.5-1.2 1.6-1.4 1.4-2.1-1.6-.8-2.9-1.3-3.3-4.4-3.4-1.8 0-3.6-.5-3.8-1-.2-.6-1.7-1.8-3.2-2.7-1.6-1-2.9-2.1-2.9-2.5 0-.4.5-.2 1.2.5s1.6 1.2 2.2 1.2c.5 0 .1-.6-1-1.4-1.2-.9-2.3-1.1-2.9-.5-1.2 1.2-2.5 1.1-2.5-.2 0-.5.4-.7 1-.4.5.3.7 0 .4-.8-.6-1.6-3.3-1.9-3-.3.2.6.1.8-.1.3-.3-.4-.9-.4-1.5-.1-.5.4-.4-.4.2-1.7 1.3-2.4 1.3-2.4-.8-.6-1.4 1.3-2.2 1.5-2.7.7-.4-.7-.1-1.6.6-2.1.8-.5 1-.9.4-1-.5 0-2.4-.2-4.2-.4-2.6-.3-3.1 0-2.7 1.3.5 1.5.4 1.4-.6-.1-.6-.9-.8-2.2-.4-2.9.4-.7.3-.8-.4-.4S35 43 35 44.1c0 1-.5 1.9-1.1 1.9-.5 0-.8.4-.5.8.3.5-.1.9-.9.9-1.3 0-1.3-.3 0-1.7.8-.9 1.5-2 1.5-2.5 0-.4-.9.3-2.1 1.6-1.9 2.2-1.9 2.4-.3 3.6 2.1 1.5 1.1 1.7-1.5.4-1.6-.9-1.8-.4-2 4.5-.2 6.5.9 8.4 4.7 7.8 1.6-.3 2.2-.1 1.5.4-1.3.8-1.4 5.2-.1 5.2.4 0 .5.8.2 1.7-.5 1.7-.5 1.7.6 0 .6-.9.8-2.3.5-3-.4-.6 0-.4.9.6.8 1.1 1.2 2.6.9 3.5-.5 1.1-.3 1.3.8.7 1.2-.8 1.2-.6 0 .9s-1.2 1.7 0 1.4c.8-.2 1.7-.7 2-1.1.3-.5.9-.1 1.2.8.4.9.3 1.3-.2 1-.5-.3-1.2-.1-1.6.5-.5.9 2.6 1.5 4 .7.5-.2 4 4.5 3.9 5.3-.2.8 3 2.9 3.8 2.4.4-.2 1 .1 1.4.7.4.8.3.9-.4.5-.8-.5-1.2 0-1.2 1.3s.6 2.1 1.8 2.1c1.5 0 1.5-.2.2-1.1-1.3-.9-1.3-1 0-.6.8.2 1.5 1 1.5 1.8.1.8.7 1.3 1.5 1.1 1-.2 1.1 0 .2 1-1.5 1.8-1.1 5.5.5 5.5 1 0 1-.4 0-1.6-1.1-1.4-1-1.4.6-.2.9.7 1.7 2.4 1.7 3.7 0 1.6.6 2.4 1.8 2.4.9 0 2.4.5 3.2 1.1 1.2.8.9.9-1 .5-1.4-.3-1.9-.3-1.2 0 .6.3 1 1 .6 1.5-.3.5-.2.9.3.8.4-.1 1.6-.1 2.7 0 1.5.1 1.6.4.6 1.6-1 1.2-.8 1.4.9 1 1.3-.2 2.1.1 1.9.8-.2.7.1 1.3.5 1.4.4.1 1.5.9 2.3 1.8.9.8 2.1 1.2 2.7.8.7-.3.9-.2.4.2-.4.5.1 1.7 1 2.8 1 1.1 1.2 1.7.6 1.3-.7-.4-1.3-.3-1.3.3 0 .5.6 1.2 1.3 1.4.6.3.3.6-.8.6-1.6.1-1.7.3-.5 1 .8.6 1.8.7 2.2.5.4-.3.8.2.8 1 0 .9.7 1.6 1.5 1.6 1.8 0 2 2 .3 2.1-.7 0-.3.5 1 1.2 1.9.8 2.5.8 3.2-.4.6-.9.8-.1.6 2.3-.2 2.1 0 3.6.4 3.3.5-.3 2 .9 3.5 2.7 1.5 1.8 2.5 2.8 2.1 2.2-.3-.6.1-1.1.8-1.1.8 0 1.2.7.9 1.4-.3.8.4 2.4 1.6 3.7 1.2 1.2 1.9 2.5 1.6 2.8-.3.2.5.4 1.8.4 1.8-.1 2.1.4 1.9 2.5-.4 3.5 2.2 5.7 4.6 3.8 1.5-1.2 1.6-1.2.6.1-1.1 1.4-1.6 5.5-.6 4.5.3-.3 1.6 1.1 2.9 3.1 1.9 2.7 2.8 3.3 3.8 2.4 1-.8 1.5-.8 2.1.1.4.8.3.9-.4.5s-1.2-.1-1.2.7c0 .7.7 1.4 1.5 1.4s1.5-.5 1.5-1c0-.6.3-.7.6-.4.4.4.2 1.2-.4 2-.7.8-.7 1.8-.2 2.7.7 1 1 1.1 1 .2 0-.6.5-1.2 1-1.2.6 0 1 .9 1 2s.7 2 1.6 2c.9 0 1.2-.5.8-1.2-.4-.7-.3-.8.4-.4.6.4.8 1.4.5 2.3-.4 1-.2 1.4.4 1 .7-.5.9 0 .6 1.3-.3 1.1-1 2-1.6 2-.6 0-.7.3-.4.6.4.4 1.3.1 2.2-.6.9-.7 1.8-1 2.2-.6.3.3.1.6-.5.6s-.9.7-.6 1.5c.4.8 1 1.2 1.5.9 1.3-.8 1.1 2-.3 3.4-.9.9-.6 1.1 1 .7 1.2-.2 2.2.1 2.2.6 0 .6.5.7 1 .4.6-.3 1 .4 1 1.5 0 1.6.4 2 1.5 1.6.9-.3 1.8.1 2.1.9.4.8 1.1 1.2 1.7.8.6-.3.7-.1.3.5-.4.6-1.4.9-2.4.6-.9-.3-.6.1.8.9 1.4.9 2.8 1.4 3.1 1.1.9-.5 3 4.6 2.3 5.7-.3.5.2 1.2 1 1.5.9.3 1.6 1.1 1.6 1.6 0 .6-.6.8-1.3.5-.8-.3-1.4.1-1.4.8 0 .7.6 1.1 1.2.9.6-.3 1.2.2 1.2 1s-.4 1.3-.9 1c-.5-.3-1.8.2-2.9 1.2-1.4 1.3-1.6 2-.8 3.1 1.4 1.6-.2 1.7-2 0-1-.8-1.2-.8-.7 0 .3.6.1 1.5-.4 1.8-.8.5-.6 1.3.5 2.5 1.6 1.8 1.6 1.8-.7 1.3-1.8-.4-2-.3-.8.6 1.3 1 1.3 1.1 0 1.2-.8.1-2.2.1-3 0-1.3-.2-1.3 0-.1.8.8.5 2.1.7 3 .4 1.2-.3 1.2-.2-.2.7-.9.6-1.5 1.6-1.1 2.2.4.7-.2.8-1.7.3-2.2-.7-2.3-.7-.9 1s1.4 1.7-.8.6l-2.3-1.2 1.8 2.8c1.7 2.7 1.7 2.8-.2 1.3-1.1-.9-1.6-1-1.1-.3.4.8.2 1.3-.5 1.3-.6 0-.9.8-.6 2 .3 1.1-.2 2.5-1.1 3.2-1.3 1.1-1.4 1.1-.7-.1.5-1 .4-1.2-.3-.7-.7.4-1.2 1.4-1.2 2.3 0 .9-.8 2.2-1.7 2.9-2 1.4-2.4 3.5-.8 4.6.5.4-.1.8-1.4.8-2.1 0-2.2.2-1 1.7 1 1.2 1.1 1.5.1.9-2.2-1.3-4.2 1.2-3.2 3.9.7 1.9.6 2.3-.5 1.8-1-.3-1.5.2-1.5 1.7 0 1.1-.4 1.8-1 1.5-1.4-.8-1.3 1.8.1 3.2.8.8.7 1.3-.2 1.8-.7.5-1 .4-.5-.3.3-.6-.3-1.6-1.4-2.2-1.8-1-1.9-.9-1 1.6.9 2.3.8 2.5-.3 1.5-1.2-.9-1.4-.7-1.3 1.1.3 2.9-1.1 4.8-2.9 4.2-.9-.4-1.3.3-1.1 2.5.1 1.6-.2 2.8-.6 2.5-.4-.3-.8 0-.8.5 0 .6-.5 1.1-1.1 1.1-.5 0-.7-.5-.3-1.2.5-.7.3-.8-.5-.4-.7.5-1 1-.7 1.3 1 1-1.5 4.4-2.7 3.6-.7-.4-.3.6.7 2.2l1.9 3-2.3-2-2.3-2 1.1 2.2c1.1 1.9.9 2.1-1.3 1.9-2.1-.3-2.3-.1-1.4 1.7.8 1.4.8 1.8 0 1.3-.6-.4-1.9-.2-2.8.4-1.6 1-1.6 1.1.2.6 1.9-.6 1.9-.5.3.8-2.3 1.7-2.3 2.7 0 2 1.6-.5 1.6-.5-.1.6-.9.6-2.1.8-2.7.5-.9-.5-3.2 2.7-2.9 4.2.3 1.9-.2 3.3-1.2 3.3-.5 0-.7-.5-.3-1.2.4-.7.3-.8-.5-.4-.6.4-.9 1.1-.6 1.6.3.4.2 1-.2 1.3-.5.2-.3.2.4.1.7-.2 1 .3.6 1.2-.3.8-1.1 1.3-1.8 1-.7-.2-2.1.4-3.1 1.5-.9 1-1.2 1.9-.6 1.9s1.2-.6 1.5-1.3c.3-.9.8-.9 1.8.2.9.9.9 1.1.2.7-.7-.4-1.3-.2-1.3.3 0 .6-.5 1.1-1.1 1.1-.6 0-1.7.7-2.5 1.5-1.8 1.8-.4 2 1.6.2 1.2-1 1.2-.9.2.4-.6.9-.9 1.8-.7 2.1.3.3-.4.5-1.6.4-1.2 0-2.4.5-2.6 1.1-.3.7 0 1.3.7 1.3.6 0 .8-.4.5-1-.4-.6.1-.7 1.1-.3 1.6.6 1.5.8-.4 1.6-1.2.6-2.2 1.4-2.2 1.9s.5.6 1.2.2c.7-.4.8-.3.4.5-.6.9-1.1.9-2.4-.1-1.4-1.2-1.4-1-.2 1.2 1 2.1 1 2.3-.1 1.2-1.6-1.5-2.9-1.6-2.9-.1 0 .5.5.7 1.1.3.7-.4 1-.1.7.7-.3.8-1.1 1.4-1.9 1.4-1.6 0-2 2.7-.4 3.7.6.5.3.8-.7.9-3.2.3-3.6.4-4.5 1.3-.5.5-.3.6.5.2.8-.5 1.2 0 1.2 1.3 0 1.2-.5 2.1-1.1 2.1-.5 0-.7-.6-.3-1.3.4-.6.3-.8-.1-.4-1.3 1.1-1.5 3.8-.3 3.1.7-.4.8-.2.4.4-.4.7-1.4 1.2-2.3 1.2-1.3 0-1.3.2-.2 1.7 1.3 1.5 1.2 1.5-.8.5-1.9-1.1-2.1-.9-1.8 1.3.2 2 0 2.3-1.2 1.4-1.1-1-1.2-.8-.7.6.5 1.1.3 1.6-.2 1.2-.6-.3-1 .8-.9 2.8.2 2.9-.1 3.3-1.4 2.5-1.3-.7-1.6-.2-1.6 2.3 0 1.8-.5 3.3-1.2 3.3-.7.1-1.7.2-2.3.3-.5 0-.7.8-.4 1.6.4.8.2 1.5-.4 1.5-.6 0-1.2-.6-1.5-1.3-.3-.6-.4-.2-.4.9.1 1.3.6 2 1.3 1.7.7-.2 1.5.1 2 .8.4.7.3 1-.3.6-.5-.3-2.3-.2-3.9.3-1.6.4-2.3.9-1.6.9.6.1 1.2.9 1.2 1.8 0 1.5-.2 1.6-1 .3-.7-1.1-1-.7-1 1.7 0 1.8-.5 3.3-1.1 3.3-.5 0-.7-.6-.3-1.3.5-.9.4-.9-.6 0-.8.7-1.4 3-1.5 5-.1 2.5-.6 3.7-1.4 3.5-.7-.1-1 .2-.6.8.3.6.9.8 1.3.6.4-.2.7 2.2.7 5.5 0 3.2-.3 5.9-.8 5.9-.4 0-.5-.5-.2-1 .3-.6.1-1-.4-1-.6 0-1.1.7-1.1 1.5s.5 1.5 1.2 1.5c.6 0 .8.3.5.7-.4.3-.2 1.2.5 2 .8 1 .8 1.7-.1 2.6-1 .9-1.1.8-.5-.7.5-1.3.4-1.7-.4-1.2-1 .6-1.3 4.6-.3 4.6.2 0 1.3-.8 2.4-1.8 1.9-1.7 1.9-1.6.6.6-.8 1.2-2.1 2.2-2.9 2.2-1.2.1-1.1.3.3 1.1 1.3.8 1.5 1.4.7 3-.9 1.5-.7 1.9.5 1.9.9 0 1.3.5 1 1-.4.6-1.2.7-1.8.4-.7-.4-.9-.4-.5.1.4.4.2 1.5-.5 2.3-1 1.3-.9 1.4.2.8 1-.7 1.2-.3.6 1.3-.5 1.6-.2 2.1 1.1 2.1s1.4.3.4 1.5c-1 1.2-.8 1.3 1.2 1l2.3-.4L39 405c-2.8 2.2-2.1 2.6 1.3.9 1.2-.7 1.9-.8 1.5-.4-.4.4 0 1.4 1 2.2.9.8 1.2 1.2.6.9-.7-.3-1.4.1-1.8.9-.3.8-.1 1.5.4 1.5.6 0 1 .5 1 1.1 0 .5-.5.7-1.2.3-.7-.5-.8-.3-.3.6.6 1 1.1.9 2.1-.5 1.2-1.6 1.3-1.6 1.3.4.1 1.1.1 3 .2 4.2 0 1.6.3 1.8 1.3 1 1.6-1.3 2.7-.4 1.9 1.5-.3.8-1 1.1-1.6.7-.6-.4-.7-.1-.3.6.6.9 1.3.8 2.9-.6 1.2-.9 1.6-1.1 1-.3-1.6 1.7-1.7 3.4-.2 2.4.7-.4.7.1-.1 1.6-.8 1.5-.8 2-.1 1.6.6-.4 1.1-.3 1.1.2s.9 1.2 2.1 1.5c1.2.3 1.8 1 1.4 1.7-.4.7 0 1 1.1.8 1.4-.2 1.8.2 1.6 1.9-.2 1.7.2 2.1 2.1 1.9 1.3-.2 2.4.2 2.4.9s-.8 1-1.9.7c-1-.2-1.8 0-1.8.5s.8.9 1.8 1c4.4.3 6 .8 5.6 1.5-.3.5-1 .6-1.5.3-.5-.4-.9-.1-.9.5 0 .7.8.9 2 .5 2.1-.7 2.7.4 1 2.1-.7.7-.6 1.1.4 1.1.8 0 1.3-.4 1-.9-.3-.4.2-.8 1.1-.8.9 0 1.3.4 1 1-.3.5-.1 1 .4 1 2 0 2.6.2 3.8 1.2.7.5 1.6.7 2.1.5.4-.3 1.4-.2 2.1.2 1 .6.9 1-.4 1.4-1 .5-1.4.3-.9-.5.4-.7.3-.8-.5-.4-1.9 1.2-.4 2.4 2.4 1.8 1.8-.3 2.5 0 2.5 1.1 0 .9.5 1.9 1.2 2.3.7.4.8.3.4-.4-.8-1.3.6-1.6 1.8-.5.4.5 1.7.8 2.9.8 1.2.1 2.1.6 2 1.1-.1.6.5 1.1 1.2 1.1 1.1 0 1.2-.4.4-1.3-.7-.8-.6-1.4.2-2 .8-.5.9-.3.4.6-.6 1-.4 1.2.9.7 1-.4 1.5-.3 1.1.3-.4.6-.1.9.7.8.7-.2 1.2.3 1 1-.1.8.2 1.1.8.7.6-.3.8-1.1.5-1.6-.4-.5.3-.9 1.4-.9 1.1 0 2.2-.4 2.6-.9.8-1.3 4.6-.9 4.1.4-.2.6.4 1.1 1.4 1.1 1 0 1.6-.5 1.3-1.1-.2-.7.3-1.2 1.2-1.2 1 0 1.4.6 1 1.5-.4 1.2-.3 1.3 1 .2.8-.7 1.5-.9 1.5-.5s.6.2 1.4-.4c1.1-.9 1.5-.9 1.9.1.4 1.1.6 1 .6 0 .1-.7.6-1 1.3-.6.7.4.8.3.4-.5-.4-.6-1.2-.9-1.7-.6-.5.4-.9.1-.9-.5 0-.7.7-1 1.5-.7.8.4 1.7.2 2-.3.3-.5 1.9-.7 3.6-.5 2.1.3 2.9 0 2.6-.8-.3-.7.3-1.3 1.3-1.3s1.6.6 1.3 1.3c-.3.7 0 1.3.6 1.3 1 0 1.6-2.2 1.2-4.4-.1-.5.5-.4 1.3.4 1.1.8 1.6.9 1.6.1 0-.6.5-1.1 1.1-1.1.5 0 .8.4.4.9-.3.5 0 1.3.6 1.7.7.4.9.3.6-.3-1-1.6 2-3.6 4.7-3.1 1.7.4 2.3.1 1.9-.9-.3-.7-1.3-1.3-2.2-1.4-1 0-1.2-.2-.3-.6.7-.3 2 .1 2.9.9 1.2.9 1.5.9.9 0-.4-.7-.2-1.2.4-1.2.6 0 .8-.5.5-1-.3-.6.1-1 .9-1 1 0 1.3.6 1 1.8-.5 1.5-.4 1.5 1-.2.8-1 1.3-2.4.9-3-.3-.6-.3-.8.2-.4.4.4 1.4.3 2-.2.7-.6 2.4-1.1 3.8-1.2 1.9-.2 2.3-.5 1.6-1.5-.8-.9-.6-1.1 1-.8 1.4.3 1.9 0 1.5-.7-.5-.8-.1-.9 1.1-.4 1.4.5 1.6.4.7-.7-.9-1.1-.8-1.4.6-1.4.9 0 2.1.5 2.5 1.1.6.7.7.4.3-.7-.3-1.1 0-1.7 1-1.7.8 0 1.2-.5.9-1-.4-.6-1.1-.7-1.7-.4-.6.4-.8.2-.4-.4.3-.6 1.4-1.1 2.4-1.1 3.8-.1 5.1-.5 4.6-1.3-.3-.5-1-.5-1.6-.2-.7.5-.8.2-.4-.5.5-.7 1.4-1 2.2-.7.8.3 1.4.1 1.4-.4 0-.6-.5-1-1.2-1-.6 0-.8-.3-.5-.6.4-.4 1.4-.1 2.4.7 1.1.9 1.4 1 .9.1-.4-.6-.2-1.2.3-1.2.6 0 1.1-.4 1.1-1 0-.5-.8-.7-1.7-.4-1 .2-.3-.3 1.5-1.3 1.8-.9 3-2.3 2.8-2.9-.3-.9.1-1.1 1.1-.7 1 .4 1.4.2 1-.4-.4-.6.4-.9 1.9-.7 2.5.2 2.5.2.7-1.9-1-1.2-1.2-1.7-.3-1.1 2.1 1.6 4.9 1.4 4.3-.3-.4-.9.3-1.6 1.6-2 1.3-.3 2-1.1 1.7-1.9-.3-.8 0-1.1.9-.8.8.3 2 .2 2.7-.2.7-.5 2.2-1 3.2-1.1 1.1-.2 2.6-.9 3.4-1.6.8-.6 2.3-1.1 3.3-.9.9.2 2-.2 2.4-.8.5-.8 1.1-.7 2.3.2 1.4 1.1 1.5 1 .9-.7-.7-1.8-.6-1.9.6-.3.8 1 1.7 1.5 2.1 1.1 1.1-1.2 4.6-1.3 4.6-.2 0 .5.4.8.9.4.5-.3 1.2-.1 1.6.5.4.6 1.1.8 1.6.4.6-.3 1.7.2 2.5 1.2 1.4 1.8 1.4 1.8.5-.3-1.5-3-1.4-3.8.4-2.3.8.7 2.2.9 3.1.6 1.4-.5 1.5-.4.4.9-.7.9-1 1.8-.6 2.2.3.3.6 0 .6-.7s.3-1 .7-.6c.4.3 1.2-.4 1.9-1.6l1.2-2.3.7 2.6c.5 2.2 1.1 2.6 3.6 2.3 2.1-.3 2.8 0 2.3.8-.4.7-.3.8.5.4.6-.4 1.9-.2 2.8.6 1.2.9 1.5.9.9 0-.4-.6-.6-1.2-.4-1.2.2 0 1.7-.4 3.5-.9 2.7-.8 3.1-.7 2.6.7-.5 1.2.1 1.1 2.4-.6 2.3-1.6 3.4-1.9 3.9-1.1.4.7.3.9-.3.6-.6-.4-1.6 0-2.3.8-1.5 1.8-1 1.9 2.7.4 3.7-1.4 7.2-1.8 7.8-.9.3.5-.6.7-2 .6-1.4-.2-3 .3-3.6 1-1.1 1.3-.6 1.3 5.1-.1.8-.2 1.9-.4 2.4-.4.5-.1.3-.7-.4-1.5-1-1.3-.8-1.3 1.4-.3l2.5 1.2-2.2 1.3c-1.9 1.1-1.9 1.2-.2.6 1.1-.3 2.5-.7 3.1-.7.6 0 .9-.8.7-1.8-.3-.9 0-2 .6-2.3.7-.5.8-.1.4 1.1-.3 1-.3 1.5.1 1.1.5-.4 1.8-.3 3 .1 2.1.9 5.2-1 3.8-2.3-.3-.4.1-.4 1.1 0 .9.3 1.7 1 1.7 1.6 0 .5-.4.7-.9.3-.5-.3-1.3 0-1.7.6-.4.7-.3.9.4.5.5-.3 1.3 0 1.5.6.4 1 .6 1 .6 0 .1-.7.6-1 1.1-.7.6.3 1.3-.2 1.7-1.2 1-2.6 2.3-3.2 6.1-2.7 1.9.2 3.1 0 2.7-.5-.3-.5 0-1.3.6-1.7.8-.5.9-.3.4.6-.6 1-.4 1.2.9.7 1-.4 1.9-.7 2.2-.7.2 0 .1-.8-.2-1.8-.3-.9.1-.6.9.7.8 1.4 1.7 1.9 2.1 1.3.3-.6 0-1.2-.6-1.5-1-.4-1-.7 0-1.8 1.1-1.2 1.3-1.2 1 .1-.2.9.3 1.4 1.2 1.2 1.2-.3 1.3-.1.3.9-1.5 1.5-1.7 3-.4 2.6.5-.1.8.2.8.8-.1.5-.8.9-1.4.9-2-.3-1.5.4 1.5 2.1l2.7 1.6-3-.5c-1.6-.3-2.4-.3-1.7 0 .6.3.9 1.1.5 1.7-.4.6 0 .8.9.5 1.1-.5 1.4 0 1 1.8-.3 1.5 0 2.4.9 2.4.7 0 .9.3.6.6-.4.4-1.4.1-2.3-.7-1.6-1.3-1.6-1.2-.5.9.7 1.4 1.8 2.1 2.6 1.8.8-.3 1.7-.1 2 .4.6.9-3.6.7-5.3-.4-.6-.3-1.4-.2-1.7.4-.4.6-.3 1 .2.9 2.4-.4 3.7.1 2.6 1.2-.8.8-.6 2 .9 4.5 1.1 1.9 1.6 3.9 1.2 4.6-.6.9-.3.9.9-.1 1-.8 2-1.1 2.4-.7.3.3.1.6-.5.6-.7 0-1.1.6-.9 1.2.1.7-.4 1.2-1.1 1-.8-.1-1.1.2-.7.8.3.6 1 .8 1.5.5.5-.3 1.2 0 1.6.6.5.8.3.9-.6.4-.9-.6-1-.2-.5 1.5.5 1.5.4 2-.4 1.6-.7-.5-.9-.1-.5.8.3.9 1 1.4 1.4 1.1.5-.3 1.2 0 1.6.6.4.8.3.9-.4.5s-1.2-.2-1.2.3c0 .6.6 1.1 1.3 1.1.8 0 .7.3-.3 1-.9.6-2 .5-3-.3-1.3-1-1.3-1-.2.5.7.9 2.1 1.5 3.1 1.3 1.1-.2 1.7.4 1.9 1.8 0 1.2-.2 1.7-.6 1.2-1-1.4-4.2-1.8-4.2-.5 0 .5.3.9.8.8.4-.2 1.8.5 3.2 1.5 1.3.9 2 1.7 1.5 1.7s0 .7 1.1 1.5c1.9 1.5 1.9 1.5-.1.8-1.7-.6-1.8-.5-.7.9.9 1.1 1 1.8.2 2.3-1.4.9-1.3 2.5.3 2.1.6-.1.9-.1.4.1-.4.3-.5.9-.2 1.3.3.5 0 1.2-.6 1.6-.8.4-.9.3-.5-.4s.2-1.2-.4-1.2c-.7 0-1 .6-.7 1.2.2.7 1.1 1.2 2.1 1 .9-.2 1.6.2 1.6.8 0 .5-.6 1-1.4 1-.8 0-1.8.5-2.2 1.1-.4.8 0 .9 1.5.4 1.5-.4 2.1-.2 2.1.8 0 .9.6 1.8 1.3 2.1.6.3.3.4-.9.1-1.7-.4-2 0-2 2.4 0 1.7.3 2.8.8 2.5.4-.3.8-.1.8.5 0 .5-.5 1.3-1 1.6-.6.4 0 1.5 1.5 2.7 1.9 1.5 2.3 2.3 1.6 3.7-.8 1.3-.6 1.8.5 1.8.8 0 1.3-.6 1-1.3-.3-.7.3-1.8 1.2-2.6 1.5-1.2 1.6-1.1.4.4-.9 1.1-1 1.8-.2 2.3.7.4.5 1.1-.5 2.1-1.7 1.8-1.9 3-.5 3.9.6.3.7-.1.4-.9-.3-.9-.2-1.6.4-1.6 1.2 0 1.1 1.8-.3 3.9-.5 1-.4 1.6.3 1.9.7.2 1 .8.7 1.3-.4.5 0 .6.8.3s1.8 0 2.3.7c.4.8.3 1-.4.5-2-1.2-1.3 1.2 1.1 3.6 1.2 1.3 1.8 2 1.3 1.5-.6-.4-1.9-.7-3-.6h-2.1l2 .9c2.2.8 5.3 4 4 4-.4 0-.1.8.6 1.7.8 1 .9 1.4.2 1-.6-.4-1.4-.3-1.8.3-.3.5.3 1 1.4 1 2.2 0 2.8 1.4 1.1 2.5-.5.3-1 1.1-1 1.6 0 .6.5.7 1.2.3.8-.5.9-.2.5 1-.4 1-.2 2.6.3 3.6.9 1.8 4.6 1.8 95 1.9h94V365.6c0-124.5-.2-146.5-1.4-147.5-1.1-.9-1.6-.9-2.2 0-.5.8-.3.9.6.4.8-.5 1.1-.4.7.3-.4.5-1.6.8-2.8.5-1.6-.4-1.7-.8-.7-1.4.9-.6.9-.9.1-.9-.7 0-1.7.8-2.2 1.7-.6 1.1-1.1 1.3-1.2.5-.1-.6-.2-1.6-.3-2.1 0-.5-.5-1.3-1-1.8-.5-.4-.6-.3-.3.3.8 1.5-1.5 2.5-3.2 1.5-.7-.5-1.4-1.6-1.5-2.6-.2-1.1-.9-2.1-1.7-2.3-.8-.2-1 0-.4.5 1 .8 1.8 3.3 1.1 3.3-.3 0-1.9-1.5-3.7-3.3-1.8-1.7-2.7-2.4-2-1.5 1.1 1.4 1 1.7-.8 1.5-1.3-.1-1.9-.6-1.7-1.4.3-.8-.1-1-1.1-.6-.9.4-1.4.2-1-.3.3-.6-.4-1.6-1.6-2.4-2-1.2-2.1-1.2-.9.3 1.1 1.2 1.1 1.7 0 2.3-.7.4-1 .4-.6 0 .3-.4-.3-1.9-1.4-3.2-1.8-1.9-2.4-2.1-3.7-1.1-.8.7-1.2.7-.8.1 1-1.7-4.1-6-5.4-4.7-1.5 1.5-4.3-1.1-3.4-2.9.4-.7-.1-.4-.9.6-1.6 1.9-1.6 1.9-1.7-.5-.1-1.3-.1-2.7 0-3.2 0-.4-.4-.7-1-.7s-.8 1-.5 2.2c.3 1.3.3 1.7 0 1-.3-.6-1-1-1.5-.7-.5.4-.6-.2-.2-1.1.5-1.4.2-1.6-2-1.2-2.2.4-2.5.3-1.6-.8.9-1.1.8-1.4-.6-1.4-1.1 0-1.5-.5-1.1-1.6.3-.8.2-1.2-.4-.9-.6.3-1 .1-1-.6 0-.8-.4-.8-1.5.1-.9.7-1.8 1-2.2.6-.3-.3-.2-.6.4-.6.5 0 1-.7 1-1.5s-.2-1.3-.5-1c-.2.2-1.9-.3-3.6-1.2-1.7-1-3.4-1.6-3.9-1.5-.4.1-.6-.4-.5-1 .2-.7-.4-1.2-1.2-1-1.2.3-1.2.1.1-1.5 1.6-1.9 1.8-3.1.7-4.9-.4-.6-.1-1.1.7-1.1.8 0 1.2.4.9.9-.3.4 0 .8.6.8s.8.5.4 1.2-.3.8.5.4c.6-.4.9-1.1.7-1.5-.3-.4 0-1.3.6-2.1.8-1.2.9-1.2.4.2-.7 2.2.2 2.3 2.4.3 1.4-1.3 1.7-1.3 1.7 0 0 .8-.5 1.1-1 .8-.6-.4-.7-.1-.2.7.7 1.1 1.2.9 2.3-.8 1.4-2.2 1.6-2.2 3.5-.5 1.1 1 1.7 1.2 1.3.5-.4-.7-.1-1.2.8-1.2s1.6.5 1.6 1.1c0 .6 1.2.1 2.6-1 2.1-1.6 3.1-1.8 4.8-1 2 1 2 1 .2-.5-1.7-1.3-1.8-1.8-.6-2.9.8-.7 1-.8.7-.1-.8 1.4 2 2.7 2.8 1.3.4-.5 1.1-.6 1.7-.3.6.4.8.2.4-.4-.3-.6-.2-1.3.4-1.7.5-.3 1-.2 1 .3s.7.9 1.5.9c1.2 0 1.2-.3.2-1.5-1.1-1.3-.9-1.4 1.3-.2 2.3 1.2 2.4 1.2 1.1-.4-.8-.9-1-1.6-.5-1.5 2.1.4 2.8-.2 1.4-1.2-1.3-.9-1.3-1 0-.6.8.2 1.4 1.3 1.2 2.3-.2 1.7 0 1.6 1.4-.4 1.7-2.2 4.1-3.2 2.8-1-.5.7-.3.8.5.4.7-.5 1-1.4.7-2.1-.8-2.2.6-2.6 2.7-.8 1.9 1.7 2 1.7.8-.5-1.1-2-.8-2.6 1.2-2.3.4 0 .7-.2.8-.6 0-.5.2-1.6.4-2.6s-.1-1.4-.7-1.1c-.6.4-1.4 0-1.9-.7-.6-1-.9-.7-.9 1 0 2.3-.1 2.4-1.4.6-1.5-2.1-5.3-2.8-5.3-1 0 .7 1.1 1.1 2.5.9 1.3-.1 2.1 0 1.8.4-1 1-9.6 1-9.6 0 0-.5.9-.6 2-.3 1.2.4 2 .2 2-.5 0-.6-.4-.9-.9-.5-.5.3-1.3 0-1.7-.6-.4-.8-.9-.7-1.5.2-.6 1.1-1.1 1.1-2 .2-.6-.6-1.8-.9-2.5-.6-2.1.8-1.7 2.2.6 1.8 1.1-.2 2.2 0 2.4.4.6.9-3.4.8-4.9-.1-.5-.3-1.8-.4-2.7-.3-1.1.2-1.5-.2-1.1-1.1.4-1 0-1.2-1.1-.8-.9.3-1.4.9-1.2 1.3.3.4-.5.8-1.7.8-1.5.2-1.8 0-.9-.6 1.1-.7 1.1-.9-.1-1.4-.9-.3-1.8.1-2.2 1.1-.6 1.6-.7 1.6-1.9-.1-.7-.9-1.9-1.7-2.5-1.7-.7 0-.9-.5-.5-1.3.5-.8.3-.8-.9.2-.9.7-1.4 1.8-1 2.4.3.6.1.7-.5.3-.9-.5-.9-1.3-.1-2.7.6-1.2.8-2.3.5-2.7-.3-.3-.6 0-.6.7s-.5.9-1.2.5-.8-.3-.4.4.4 1.2-.1 1.3c-.4 0-1.5.2-2.4.4-.9.1-1.6-.3-1.6-1.1 0-1 .4-1.1 1.4-.3.8.7 1.3.8 1.3.1 0-1.6-2.6-2.2-4-.9-.7.7-1 .7-.7.2.2-.6-.7-1.9-2.1-2.9-1.4-1.1-2.2-1.4-1.8-.8.3.6.2 1.3-.4 1.7-.9.6-1.5-.8-1.1-2.9.1-.5-.4-.4-1.3.3-1.1.9-1.6.9-2.2 0-.4-.8-.3-.9.4-.5s1.2.2 1.2-.4c0-.7-.7-.9-1.6-.6-1 .4-2.2 0-2.8-1-1.1-1.5-1.4-1.5-2.9.1-.9.9-1.8 1.2-1.8.6-.1-.6-.2-1.6-.3-2.1 0-.6-.5-1-1-.9-.5 0-1.3-.5-1.7-1.3-.7-1.1-1.1-1-2 .2-.9 1.3-1 1.2-.5-.3.3-.9.1-1.7-.4-1.7-.6 0-1-.5-1-1.1 0-.5.5-.7 1-.4.6.3 1 .1 1-.4 0-1.4-1.3-1.4-2.8.1-.9.9-1.2.8-1.3-.7-.1-1.1-.1-2.4 0-2.8.1-.5-.3-.6-.8-.3-.5.4-1.2 0-1.4-.6-.4-.9-.6-1-.6-.1-.1.6.4 1.5.9 1.8.6.3 1 1.1 1 1.8 0 1.9-2.9-2.7-3-4.8-.1-1.1-.4-1.4-.7-.8-.2.7-1.2 1.3-2.1 1.3-1.1 0-1.3-.3-.6-.8 1.3-.8 1.5-4.4.2-3.6-.5.3-.6.9-.3 1.4.3.4-.1 1-.9 1.3-.9.4-1.2-.2-1-1.9.2-1.9-.1-2.3-1-1.5-.9.8-1.3.7-1.3-.4 0-.8.5-1.5 1-1.5.6 0 .7-.3.4-.6-.4-.4-1.2-.2-2 .4-1 .8-1.3.6-1.5-.9-.4-4.2-.6-4.9-1.1-4.3-1 .9-.8 2.8.4 3.7.6.5.4.7-.5.4-.9-.2-1.4-1.4-1.3-3 .1-1.5-.2-2.7-.7-2.7-.6 0-1 .5-1 1.1 0 .5-1.3-.4-3-2.2-2.2-2.5-2.7-3.6-1.8-4.6.8-1 .7-1.2-.5-.8-1 .4-1.7-.1-2.2-1.4-.3-1.1-1.9-2.6-3.5-3.3-1.9-.8-2.5-1.5-1.7-2s.3-.8-1.1-.8c-1.3 0-2.1-.4-1.8-.9.7-1.1-1.3-.9-3.3.3-1 .6-1.2.5-.7-.3.4-.6 0-1.4-.8-1.7-.9-.3-1.6-1.1-1.6-1.7 0-.5.9-.2 2 .8s2 1.3 2 .7c0-.7-.5-1.2-1.1-1.2-.5 0-.7-.6-.3-1.3.4-.6.4-.9-.1-.5-.4.4-1.4.3-2.2-.3-.7-.6-1.3-.9-1.3-.5 0 .3-.9-.2-1.9-1.1-1.1-.9-1.8-2-1.5-2.4.2-.4-.5-.5-1.6-.2s-1.7 1-1.3 1.7c.4.6-.1.5-1-.3-2-1.6-2.3-2.5-.4-1.5.9.5.9.3-.1-.7-1.1-1.2-1.4-1.2-2.2.1-.8 1.2-1 1-1-.8 0-1.2-.5-2.2-1.1-2.2-.5 0-.7-.5-.3-1.2.5-.7.3-.8-.5-.3-.9.5-1 1-.2 1.8.6.6 1.1 1.6 1.1 2.1 0 .6-.7 0-1.6-1.2-.9-1.3-2-1.9-2.7-1.5-.8.4-.7.1.1-.9 1.1-1.4 1-1.6-.7-1.1-1.2.3-2.9.2-3.8-.2-1-.5-2.2-.7-2.8-.6-.5.1-.2-.5.9-1.3 1.7-1.4 1.5-1.5-2.3-1.1-2.8.2-3.9 0-3.5-.7.4-.6.1-.8-.7-.6-.8.3-1.3 1.1-1.1 1.7.1.7-.2 1-.8.6-.6-.3-.8-1-.5-1.5.3-.4-.2-1.1-1.1-1.4-.8-.3-1.3-.2-.9.3.6 1.1-1.4.9-3.3-.3-.7-.4-1.1-1.4-.9-2 .4-.9-.3-1.1-2-.8-2 .4-2.4.2-1.8-.8.5-.9.4-1.1-.4-.6-.6.4-.9 1-.7 1.4.2.4-.8.7-2.4.7-1.7.1-2.6-.4-2.3-1 .2-.7-.3-1.2-1.1-1.2s-1.3.4-.9 1c.3.5-.5.7-1.8.5-1.3-.2-2.3-.8-2.2-1.4.1-.6-.4-1.1-1.2-1.1-1.1 0-1.2.5-.3 2.1.9 1.8.9 1.9-.3 1-.8-.6-2.2-1-3.2-.9-.9.2-1.5-.1-1.1-.6.3-.5.9-.7 1.3-.5.4.3.8-.2.8-1 0-1-.4-1.1-1.1-.4-.5.5-3.2 1-5.9 1-4.6 0-4.8-.1-3.6-1.8 1.3-1.5 1.2-1.6-.4-.3-2.3 1.8-3.4.7-1.6-1.6 1.1-1.4.9-1.4-.9.2-1.3 1.1-2.3 1.5-2.2 1 .5-2.3-.1-4.6-1-4-.5.3-1-.1-1-1 0-1 .5-1.3 1.3-.9.6.4.3-.2-.7-1.4-1.1-1.2-1.6-2.2-1.2-2.2.3 0 0-1-.9-2.3-.8-1.3-1.2-2.6-.9-3 .4-.3-.3-.5-1.5-.2-1.3.2-2.1-.1-2.1-1.1 0-.8-.5-1.4-1.1-1.4-.6 0-.9-.7-.6-1.5.4-.8.1-1.7-.5-2.1-.7-.4-.8-.3-.4.4s.1 1.2-.7 1.2c-1 0-1.3-.7-1-2 .3-1.2 0-2-.7-2-1 0-1-.3-.1-1.4 1-1.2.9-1.3-.8-.9-1.6.4-1.9.1-1.5-1.4.6-2.3-1.9-4.8-4-4-1.1.4-1.3.1-.9-1.1.6-1.5.5-1.6-1.2-.2-1.1.9-1.6 1-1.1.3.4-.7.2-2.1-.4-3-1.1-1.6-1.1-1.6-.6-.1.3 1 0 2-.6 2.4-.6.4-.8.3-.4-.4.3-.6.2-1.3-.4-1.7-.6-.4-.7-1.1-.4-1.7.4-.7.2-.8-.4-.4-.6.4-2-.2-3.2-1.4-1.1-1.1-2-1.6-2-1.2 0 .4.5 1.3 1.1 1.9.8.8.7 1.3-.2 1.8-.7.5-1 .4-.7-.1.7-1-1.1-2.7-3.2-3.2-1.1-.3-1.1 0 .1 1.4 1 1.3 1 1.6.1 1-.7-.4-1.9-.2-2.7.4-1.1.9-1.5.9-1.5.1 0-.6.5-1.1 1-1.1.6 0 1-.5 1-1 0-2.1-1.8-.9-3 2-.7 1.6-1.7 3-2.2 3-.6 0-.5-.7.2-1.5.7-.9 1-1.8.7-2.1-.3-.3-1.1.5-1.8 1.7-.6 1.3-2.1 3.1-3.2 4-2.2 1.7-3.6 6.6-1.5 5.3.7-.5.8-.3.4.5-.5.7-1.4 1-2.2.7-.7-.3-1.6 0-2 .6-.4.6-.3.8.4.4.6-.3 1.3-.2 1.7.4.5.9-1.5 1.5-3.8 1.1-.5-.1-.6.3-.2.9.3.6 1 .8 1.5.5.5-.3 1.2 0 1.6.6.4.8.3.9-.4.5s-1.2-.2-1.2.4c0 .6-.5.8-1.2.4-.9-.5-.8-.2.1.9 1.2 1.5 1.2 1.7-.2 1.2-.8-.4-1.8-.1-2.2.5-.3.6-.3 1 .2.9 2.4-.4 2.5.3.3 1.7-1.5.8-1.8 1.3-.8 1.2.9-.2 1.6.1 1.5.7-.1.5-.5.9-.9.7-1.2-.3-.9 1.3.5 2.8 1 1.2.9 1.2-.4.2-1.2-.9-2-.8-3.5.3-1.9 1.5-1.9 1.5 0 .8 1.3-.4 1.7-.3 1.3.4-.4.6-.1 1.4.5 1.7.7.3.3.3-.9.1-2.4-.6-4 .9-2.2 2.1.8.5.9.3.4-.6-.5-.9-.4-1.1.3-.6.8.5.9 1.3.2 2.5-.5 1-.7 2.1-.5 2.5.3.3.2.4-.2.1-.4-.3-1.3.5-2 1.7-.7 1.3-1.2 1.7-1.3 1 0-.6-.5-1.2-1.1-1.2-.5 0-.8.4-.4.9.3.5.1 1.3-.5 1.6-.6.4-.9.1-.8-.5.4-1.6-3-2.2-3.9-.8-.3.6-.1.8.5.4.6-.3 1.3-.3 1.6.2.2.4-.6.8-1.9.8-1.6 0-2.1-.5-1.8-1.6.4-1.2.1-1.1-1 .2-1.5 1.9-3.2 2.5-2.2.8.3-.5-.6-2.2-2.2-3.7-1.8-1.9-2.6-3.7-2.5-5.3.2-1.5-.6-3.8-1.8-5.3-1.3-1.6-1.8-3.2-1.3-3.9 1.1-1.9 1.3-3.9.2-3.2-.5.3-.6 1-.3 1.6.4.7.2.8-.4.4-.6-.4-.8-1.4-.5-2.3.5-1.2.3-1.4-.8-.8-.8.4-1.1.4-.6 0 .4-.5 0-1.9-.9-3.3-.9-1.3-1.1-2.1-.5-1.8.6.4 1.1.3 1.1-.1 0-.5-.9-1.4-2.1-2.1-1.6-1.1-1.8-1.6-.9-2.8 1.2-1.4.3-2-2.3-1.5-.5.1-.6-.3-.2-.8.3-.6 1.1-.9 1.8-.7.7.1.9.1.4-.1-.4-.3-.4-.9-.1-1.5.4-.6-.3-.5-1.7.2l-2.4 1.1L216 43c1.5-1.3 1.9-2.1 1-2-3.3.5-4.1 0-3.5-2 .6-2-.2-2.5-3.4-2.1-.7.2-1-.2-.6-.8.8-1.3.5-1.3-1.8 0zm1.7 1.7c.3.5-.1.9-.9.9s-1.5-.4-1.5-.9c0-.4.4-.8.9-.8.6 0 1.2.4 1.5.8zm3.1.2c.3.5.1 1-.4 1-.6 0-1.1-.5-1.1-1 0-.6.2-1 .4-1 .3 0 .8.4 1.1 1zm-9.8 1.5c0 .8-.4 1.5-.9 1.5-1 0-1.1-1.4-.1-2.3.9-1 1-.9 1 .8zM42.4 45.2c-.3.5-1 .6-1.5.3-.5-.4-.9-.1-.9.6s-.3 1-.6.6c-.9-.9.3-2.4 2-2.4.8 0 1.3.4 1 .9zM260.7 47c-.1 2-.9 2.5-2 1.3-.4-.3-.2-1.2.4-2 1.5-1.8 1.8-1.7 1.6.7zm28.1.8c.2.7-.1 1.2-.8 1.2-.6 0-.9-.4-.6-.9.4-.5.1-1.2-.4-1.4-.6-.3-.5-.4.2-.3.6.1 1.4.8 1.6 1.4zM30.5 54.9c.3.5.2 1.2-.3 1.5-.5.3-.9-.1-.9-.9 0-1.7.3-1.9 1.2-.6zm1.3 4.8c-.6.7-1.4 1-1.9.7-1.5-.9-1-2 1-2 1.5 0 1.7.3.9 1.3zM75 64.1c0 .5-.4.9-.8.9-.5 0-.9-.7-.9-1.5s.4-1.2.9-.9c.4.3.8.9.8 1.5zm225.5.6c.3 1 .6 2 .6 2.3.1.3.5 1 1 1.7.7.7.6 1.4-.1 1.8-.6.4-.9.1-.8-.7.2-.7-.2-1.2-.9-1.1-.6.1-1-.5-.8-1.5.1-.9-.2-2.3-.8-3-.6-.8-.6-1.2.1-1.2.5 0 1.3.8 1.7 1.7zm-71 13.3c.3.6-.1.7-.9.4-1.8-.7-2.1-1.4-.7-1.4.6 0 1.3.4 1.6 1zm-128.7 2.5c-.3.3-.9-.2-1.2-1.2-.6-1.4-.5-1.5.5-.6.7.7 1 1.5.7 1.8zM122.5 94c.3.6-.1.7-.9.4-1.8-.7-2.1-1.4-.7-1.4.6 0 1.3.4 1.6 1zm-61.2 2.5c-.3.9-.8 1.4-1 1.1-.3-.3-.2-.9.2-1.5.9-1.6 1.5-1.3.8.4zm313.7 1c.7.9.8 1.5.2 1.5-.5 0-1.2-.7-1.6-1.5-.3-.8-.4-1.5-.2-1.5s.9.7 1.6 1.5zM184.6 102c0 1.6-.3 3-.7 3-.6 0-.6-3.6 0-5.8.4-1.1.7.4.7 2.8zm.1 5.5c0 .8-.4 1.5-.9 1.5-1 0-1.1-1.4-.1-2.3.9-1 1-.9 1 .8zm208.3 4.8c0 .6-.9 0-2-1.3s-2-2.5-2-2.8c0-.3.9.3 2 1.3s2 2.3 2 2.8zm-222.2 8.2c-.3.3-.9-.2-1.2-1.2-.6-1.4-.5-1.5.5-.6.7.7 1 1.5.7 1.8zm-82.9 8.6c1 1.8 1.5 1.9 2.2.8.6-.9.9-1 .9-.2 0 2.3-1.7 2.2-4-.2-1.3-1.4-1.9-2.5-1.4-2.5s1.5 1 2.3 2.1zm6.6 6.9c-.3.6.1 1.3.9 1.6.9.3 1.6 1.1 1.6 1.7 0 .5-.9.2-2-.8-2.2-2-2.6-3.5-.9-3.5.5 0 .7.5.4 1zm13.8 18.9c2.7 4.6 1.4 3.8-1.8-1.2-1.6-2.3-2.2-3.7-1.4-3 .8.6 2.2 2.5 3.2 4.2zm334.5-2.4c-.3.3-.9-.2-1.2-1.2-.6-1.4-.5-1.5.5-.6.7.7 1 1.5.7 1.8zm28.3 18.8c-1 .9-1.1.8-.5-.6.3-1 .9-1.5 1.2-1.2.3.3 0 1.1-.7 1.8zm-7 2.1c-1.7 1.6-2.3 1.8-3.3.7-.7-.7-.8-1.2-.3-1.1 2 .4 3.6 0 3.1-.8-.3-.5.2-.9 1-.9 1.2 0 1.1.5-.5 2.1zm-338 3.9c-1 .9-1.1.8-.5-.6.3-1 .9-1.5 1.2-1.2.3.3 0 1.1-.7 1.8zm317.9 2.1c0 .2-.7.7-1.6 1-.8.3-1.2.2-.9-.4.6-1 2.5-1.4 2.5-.6zm-302.6 13.1c-.4.8-1 1.5-1.5 1.5-.4 0-.6-.7-.3-1.5.4-.8 1-1.5 1.5-1.5.4 0 .6.7.3 1.5zm-2.7 9.8c0 .8-.6 1.4-1.4 1.4-.9 0-1-.4-.2-1.4.6-.7 1.2-1.3 1.4-1.3.1 0 .2.6.2 1.3zm335.1.9c1.5 1.5 1.6 2.8.2 2.8-.5 0-.9-.3-.9-.8.3-1.9-.2-2.5-1.1-1.2-.8 1.3-1 1.2-1-.3 0-2 1.1-2.2 2.8-.5zm5.7 3.7c.3.5.2 1.2-.3 1.5-.5.3-.9-.1-.9-.9 0-1.7.3-1.9 1.2-.6zm-359.1 27.2c-.3.5-1 .7-1.5.3-.5-.3-.7-1-.3-1.5.3-.5 1-.7 1.5-.3.5.3.7 1 .3 1.5zM115 242c0 .5-.2 1-.4 1-.3 0-.8-.5-1.1-1-.3-.6-.1-1 .4-1 .6 0 1.1.4 1.1 1zm-10 19.4c0 .2-.7.7-1.6 1-.8.3-1.2.2-.9-.4.6-1 2.5-1.4 2.5-.6zm-7.4 8.4c-1.7 1.6-1.8 1.6-.5-.5.7-1.2 1.5-2 1.8-1.7.3.2-.3 1.2-1.3 2.2zM86 284.5c0 .8-.4 1.5-1 1.5-.5 0-.7-.7-.4-1.5.4-.8.8-1.5 1-1.5.2 0 .4.7.4 1.5zm-17.5 30.3c-.3.3-1.1 0-1.8-.7-.9-1-.8-1.1.6-.5 1 .3 1.5.9 1.2 1.2zm-28 44c-.3.3-1.1 0-1.8-.7-.9-1-.8-1.1.6-.5 1 .3 1.5.9 1.2 1.2zM38.4 399c-.6.6-1 .3-1-1s.4-1.6 1-1c.7.7.7 1.3 0 2zm196.3.4c0 .8-.6 1.2-1.5.9-1.1-.5-1.1-.7 0-1.4.7-.5 1.3-.9 1.4-.9 0 0 .1.6.1 1.4zm5.6.9c.4-.3.7-.4.7 0 0 1.8-2.1 1.4-3-.5-1-2.1-1-2.1.3-.6.8 1 1.7 1.5 2 1.1zm60.4 14.4c-.4.3-.1 1.3.5 2.1 1.5 1.8 1.9 4.2.7 4.2-.5 0-.9-.5-.9-1 0-2.1-.2-2.5-1.6-3.3-1.5-.9-1-2.7.8-2.7.6 0 .8.3.5.7zm-248 9.8c0 .8-.4 1.2-.9.9-.5-.3-.6-1-.3-1.5.9-1.3 1.2-1.1 1.2.6zm60.7 24.6c-.3.5-1 .7-1.5.3-.5-.3-.7-1-.3-1.5.3-.5 1-.7 1.5-.3.5.3.7 1 .3 1.5zm-16.4.3c0 .3-.4.8-1 1.1-.5.3-1 .1-1-.4 0-.6.5-1.1 1-1.1.6 0 1 .2 1 .4zM309.5 464c-.6 1 .9 1.5 3 1 .6-.1.4.4-.2 1.1-1.8 1.8-1.6 2.9.5 3 1.5.1 1.4.2-.2.6-1.5.4-1.6.7-.5 1.4.8.5.9.9.3.9-2.1 0-3.8-2.9-2.5-4.4.9-1 .8-1.5-.4-2-1.7-.6-2.1-2.6-.4-2.6.5 0 .7.4.4 1zm8.1 20.2c.3.4-.1.5-1 .4-.8-.1-1.8-.5-2.2-.8-.3-.4.1-.5 1-.4.8.1 1.8.5 2.2.8zm7.1 24.3c0 .8-.4 1.2-.9.9-.5-.3-.6-1-.3-1.5.9-1.3 1.2-1.1 1.2.6z"/><path d="M219 50c0 .5.5 1 1.1 1 .5 0 .7-.5.4-1-.3-.6-.8-1-1.1-1-.2 0-.4.4-.4 1zM60 54.5c-.7.9-.8 1.5-.2 1.5.5 0 1.2-.7 1.6-1.5.3-.8.4-1.5.2-1.5s-.9.7-1.6 1.5zM221.5 54c-.3.5-.1 1 .5 1s.8.5.4 1.2-.3.8.4.4c.6-.4.9-1.3.5-2.1-.6-1.8-1-1.9-1.8-.5zM68.6 58.5c-.9 2.6-.7 3.2.5 1.2.6-1 .9-2.1.6-2.3-.2-.3-.7.2-1.1 1.1zM224.5 63.9c-.3.5-.2 1.2.3 1.5.5.3.9-.1.9-.9 0-1.7-.3-1.9-1.2-.6zM227.5 74c-.3.5-.1 1 .4 1 .6 0 1.1-.5 1.1-1 0-.6-.2-1-.4-1-.3 0-.8.4-1.1 1zM43 78c0 .5.6.9 1.3.7.6-.1 1.1.4.9 1.1-.1.8.2 1.1.8.7.8-.5.7-1.1-.1-2.1-1.3-1.6-2.9-1.8-2.9-.4zM103.5 79.9c-.3.5-.1 1.2.5 1.6.5.3 1-.1 1-.9 0-1.8-.6-2.1-1.5-.7zM47.6 82.7c.6.4 1.4 1.5 1.7 2.3.5 1.1.6.9.4-.4-.1-1.1-.9-2.1-1.7-2.3-1-.3-1.1-.2-.4.4zM341.5 83c.3.5.8 1 1.1 1 .2 0 .4-.5.4-1 0-.6-.5-1-1.1-1-.5 0-.7.4-.4 1zM53 90.1c0 .5.5.7 1 .4.6-.3 1-.8 1-1.1 0-.2-.4-.4-1-.4-.5 0-1 .5-1 1.1zM72.2 112.9c.7 1.1 1.6 1.7 2 1.5.5-.3.2-1.2-.6-2-2.1-2-2.8-1.7-1.4.5zM397.9 116.4c2.1 2.2 4.1 2.7 4.1 1 0-.3-.5-.2-1 .1-.6.3-1.3 0-1.6-.9-.3-.8-1.3-1.7-2.2-2.1-1.1-.4-.9.2.7 1.9zM96.9 143.7c-1.3 1.6-1.2 1.7.4.4.9-.7 1.7-1.5 1.7-1.7 0-.8-.8-.3-2.1 1.3zM428.6 143.7c-.6 1.4-.5 1.5.5.6.7-.7 1-1.5.7-1.8-.3-.3-.9.2-1.2 1.2zM457.1 154.7c.7 1 1.5 2 1.6 2.2.2.2.3-.3.3-1.1 0-.9-.7-1.9-1.6-2.2-1.5-.6-1.5-.4-.3 1.1zM493.6 158.6c-.8 2-.8 2.4.2 2.4.4 0 .8-.9.9-2 .2-2.4-.3-2.6-1.1-.4zM490 161.4c0 .2.8 1 1.8 1.7 1.5 1.3 1.6 1.2.3-.4s-2.1-2.1-2.1-1.3zM444.5 182c.3.5.8 1 1.1 1 .2 0 .4-.5.4-1 0-.6-.5-1-1.1-1-.5 0-.7.4-.4 1zM469 200.1c0 .5.5.7 1 .4.6-.3 1-.8 1-1.1 0-.2-.4-.4-1-.4-.5 0-1 .5-1 1.1zM122 223.9c0 .6.4 1.3 1 1.6.6.3.7-.1.4-.9-.7-1.8-1.4-2.1-1.4-.7zM51.4 333.4c.1.8.5 1.8.8 2.2.4.3.5-.1.4-1-.1-.8-.5-1.8-.8-2.2-.4-.3-.5.1-.4 1zM34.3 372.5c0 .7.6 1.1 1.4.8.7-.3 1.3-.6 1.3-.8 0-.2-.6-.5-1.3-.8-.8-.3-1.4.1-1.4.8zM33.5 380c.3.5.8 1 1.1 1 .2 0 .4-.5.4-1 0-.6-.5-1-1.1-1-.5 0-.7.4-.4 1zM32 388c-.9.6-1 1-.3 1 .6 0 1.5-.5 1.8-1 .8-1.2.4-1.2-1.5 0zM35 390.1c0 .5.5.7 1 .4.6-.3 1-.8 1-1.1 0-.2-.4-.4-1-.4-.5 0-1 .5-1 1.1zM204.2 399.6c-.7.8-.8 1.4-.3 1.4 1 0 2.5-1.9 2-2.5-.2-.1-1 .3-1.7 1.1zM211.6 399.2c.3.5 1 .6 1.5.3 1.3-.9 1.1-1.2-.6-1.2-.8 0-1.2.4-.9.9zM282.5 399.1c-.4.6-.4 1.3-.1 1.6.3.4.6.1.6-.6s.5-.9 1-.6c.6.3 1 .1 1-.4 0-1.4-1.7-1.4-2.5 0zM286.5 399.1c-.4.6-.4 1.3-.1 1.6.3.4.6.1.6-.6s.5-.9 1.2-.5.8.3.4-.4c-.9-1.5-1.3-1.5-2.1-.1zM291 398.9c0 .6.4 1.3 1 1.6.6.3.7-.1.4-.9-.7-1.8-1.4-2.1-1.4-.7zM198.6 400.9c-1.4 1.5-1.5 2.1-.4 2.7.7.4.9.3.5-.1-.4-.5.2-1.4 1.4-2.1 1.2-.6 1.7-1.4 1.2-1.7-.6-.4-1.8.2-2.7 1.2zM269 402c0 .5.5 1 1.1 1 .5 0 .7-.5.4-1-.3-.6-.8-1-1.1-1-.2 0-.4.4-.4 1zM193 402.5c0 .2.6.8 1.3 1.4 1 .8 1.4.7 1.4-.2 0-.8-.6-1.4-1.4-1.4-.7 0-1.3.1-1.3.2zM243 403.1c0 .5.5.7 1 .4.6-.3 1-.8 1-1.1 0-.2-.4-.4-1-.4-.5 0-1 .5-1 1.1zM39.5 408c-.3.5-.1 1 .4 1 .6 0 1.1-.5 1.1-1 0-.6-.2-1-.4-1-.3 0-.8.4-1.1 1zM175 416.1c0 .5.5.7 1 .4.6-.3 1-.8 1-1.1 0-.2-.4-.4-1-.4-.5 0-1 .5-1 1.1zM297.3 427.5c0 .8.4 1.2.9.9.5-.3.6-1 .3-1.5-.9-1.3-1.2-1.1-1.2.6zM150.1 434.9c-.8.5-.9 1.1-.3 1.5.5.3 1.2-.1 1.6-.9.6-1.7.6-1.8-1.3-.6zM303 442.7c0 .7.4 1.4.9 1.7.5.4.8 1.2.7 1.9-.3 2.2-1.7 3.7-2.8 3.1-.6-.4-.8-.2-.5.4.5.7 1.4.7 3.1-.1 1.3-.7 2.1-1.6 1.8-2.2-.4-.5-.7-1.6-.9-2.4-.2-1.8-2.3-3.9-2.3-2.4zM71.6 444.8c-.3.5.1.9.9.9s1.2-.4.9-.9c-.3-.4-.7-.8-.9-.8-.2 0-.6.4-.9.8z"/><path d="M301.5 446c.3.5.8 1 1.1 1 .2 0 .4-.5.4-1 0-.6-.5-1-1.1-1-.5 0-.7.4-.4 1zM101.6 451.5c.4.8.8 1.5 1 1.5.2 0 .4-.7.4-1.5s-.4-1.5-1-1.5c-.5 0-.7.7-.4 1.5zM303.4 464.4c.1.8.5 1.8.8 2.2.4.3.5-.1.4-1-.1-.8-.5-1.8-.8-2.2-.4-.3-.5.1-.4 1zM317.6 495.8c-.3.5.1 1.5.8 2.1 1.1 1 1.4.9 1.2-.3-.3-2.1-1.3-2.9-2-1.8zM319.5 503c-.3.6.1.7.9.4 1.8-.7 2.1-1.4.7-1.4-.6 0-1.3.4-1.6 1z"/></svg>